<?xml version="1.0" encoding="utf-8"?>
<!-- Generator: Adobe Illustrator 16.0.0, SVG Export Plug-In . SVG Version: 6.00 Build 0)  -->
<!DOCTYPE svg PUBLIC "-//W3C//DTD SVG 1.1//EN" "http://www.w3.org/Graphics/SVG/1.1/DTD/svg11.dtd">
<svg version="1.1" xmlns="http://www.w3.org/2000/svg" xmlns:xlink="http://www.w3.org/1999/xlink" x="0px" y="0px" width="720px"
	 height="234px" viewBox="0 0 720 234" enable-background="new 0 0 720 234" xml:space="preserve">
<g id="Logo">
	<path fill="#00ADEE" d="M694.231,52.41H720v-6.704c0-25.201-20.63-45.703-45.987-45.703H133.413v25.593h540.601
		c11.148,0,20.218,9.022,20.218,20.11V52.41z"/>
	<path fill="#00ADEE" d="M49.658,234.004h7.959l26.048-0.059h590.348c25.357,0,45.987-20.504,45.987-45.703V87.694h-25.769v45.705
		c0,11.088-9.07,20.107-20.218,20.107c-11.148,0-20.218-9.02-20.218-20.107V87.694h-25.77v46.146
		c0,25.143,20.533,45.609,45.81,45.705l20.396-0.82v9.518c0,11.086-9.07,20.109-20.218,20.109H83.687L57.66,208.41h-8.002V234.004z"
		/>
	<polygon fill="#00ADEE" points="558.27,179.324 583.976,181.111 588.167,121.535 602.228,122.514 604.024,96.983 589.963,96.004 
		591.16,78.984 565.454,77.197 564.257,94.219 550.196,93.241 548.4,118.773 562.461,119.75 	"/>
	<polygon fill="#00ADEE" points="493.442,179.59 519.196,180.482 521.827,105.576 496.074,104.681 	"/>
	<path fill="#00ADEE" d="M510.22,55.791c-6.969,0-12.619,5.426-12.863,12.352c-0.119,3.414,1.105,6.671,3.449,9.17
		c2.348,2.502,5.536,3.946,8.978,4.065c0.155,0.005,0.311,0.008,0.465,0.008c6.969,0,12.619-5.424,12.862-12.352
		c0.12-3.413-1.105-6.669-3.45-9.169c-2.348-2.502-5.536-3.946-8.978-4.065C510.529,55.794,510.374,55.791,510.22,55.791z"/>
	<rect x="440.613" y="56.371" fill="#00ADEE" width="25.769" height="124.313"/>
	<polygon fill="#00ADEE" points="384.833,105.576 387.465,180.482 413.219,179.59 410.587,104.681 	"/>
	<path fill="#00ADEE" d="M396.44,55.791c-0.154,0-0.308,0.003-0.464,0.009c-3.441,0.119-6.629,1.563-8.977,4.065
		c-2.345,2.5-3.57,5.756-3.45,9.169c0.249,7.079,6.148,12.598,13.327,12.343c3.441-0.119,6.629-1.563,8.978-4.065
		c2.344-2.5,3.569-5.757,3.449-9.17C409.06,61.216,403.41,55.791,396.44,55.791z"/>
	<polygon fill="#00ADEE" points="318.493,121.537 322.685,181.109 348.391,179.324 344.2,119.75 358.261,118.773 356.465,93.241 
		342.404,94.219 341.207,77.197 315.5,78.984 316.696,96.004 302.636,96.982 304.433,122.514 	"/>
	<path fill="#00ADEE" d="M251.433,181.809l25.707,1.787l3.238-46.037c0.857-12.176-3.108-23.955-11.165-33.167
		c-8.059-9.217-19.247-14.761-31.502-15.612c-1.085-0.076-2.184-0.114-3.265-0.114c-24.016,0-44.142,18.676-45.819,42.52
		l-3.238,46.031l25.707,1.787l3.208-45.594c0.738-10.49,9.592-18.706,20.157-18.706c0.471,0,0.949,0.016,1.42,0.05
		c5.385,0.373,10.303,2.81,13.846,6.863c3.546,4.055,5.291,9.24,4.914,14.6L251.433,181.809z"/>
	<path fill="#00ADEE" d="M70.46,85.591l-3.238,46.036c-0.857,12.176,3.108,23.955,11.165,33.168
		c8.059,9.215,19.246,14.76,31.502,15.611c1.083,0.074,2.182,0.113,3.266,0.113c24.015,0.002,44.141-18.674,45.818-42.518
		l3.238-46.034l-25.706-1.787l-3.207,45.594c-0.738,10.488-9.592,18.705-20.158,18.705c-0.471,0-0.949-0.016-1.42-0.047
		c-5.386-0.377-10.303-2.813-13.846-6.863c-3.545-4.057-5.291-9.242-4.913-14.602l3.207-45.591L70.46,85.591z"/>
	<path fill="#00ADEE" d="M0,184.646h25.77v-71.298h17.164V87.754H25.77V45.706c0-11.088,9.07-20.109,20.218-20.109l45.904-0.001
		V0.003H45.987C20.63,0.003,0,20.505,0,45.706V184.646z"/>
	<path fill="#00ADEE" d="M18.015,198.094C8.082,198.094,0,206.146,0,216.047C0,225.945,8.082,234,18.015,234
		c9.934,0,18.015-8.055,18.015-17.953C36.03,206.146,27.948,198.094,18.015,198.094z"/>
</g>
<g id="Favicon" display="none">
	<path display="inline" fill="#00ADEE" d="M206.169,208.346l-156.68,0.059V234l156.68-0.061c18.04,0,33.675-10.447,41.149-25.594
		h-41.137C206.176,208.346,206.172,208.346,206.169,208.346z"/>
	<path display="inline" fill="#00ADEE" d="M18.015,198.094C8.082,198.094,0,206.146,0,216.047C0,225.945,8.082,234,18.015,234
		c9.934,0,18.015-8.055,18.015-17.953C36.03,206.146,27.948,198.094,18.015,198.094z"/>
	<path display="inline" fill="#00ADEE" d="M251.948,184.447h-25.674c0,0,0.004-45.778,0.004-45.827
		c0-11.128-9.021-20.149-20.149-20.149c-11.128,0-20.149,9.021-20.149,20.149c0,0.042,0,45.827,0,45.827h-25.679
		c0,0-0.007-45.787-0.007-45.83c0-25.312,20.52-45.831,45.832-45.831s45.832,20.52,45.832,45.831"/>
	<path display="inline" fill="#00ADEE" d="M149.737,92.787h-25.674c0,0,0.004,45.779,0.004,45.828
		c0,11.128-9.021,20.149-20.149,20.149c-11.128,0-20.149-9.021-20.149-20.149c0-0.042,0-45.828,0-45.828H58.09
		c0,0-0.007,45.788-0.007,45.831c0,25.312,20.52,45.831,45.832,45.831s45.832-20.52,45.832-45.831"/>
	<path display="inline" fill="#00ADEE" d="M226.318,74.343H252v-28.64C252,20.502,231.44,0,206.169,0h-80.836v25.594h80.836
		c11.11,0,20.149,9.021,20.149,20.109V74.343z"/>
	<path display="inline" fill="#00ADEE" d="M0,184.643h25.682v-61.852H48.89V93.235H25.682V45.704
		c0-11.088,9.039-20.109,20.149-20.109l38.121,0V0H45.832C20.56,0,0,20.502,0,45.704V184.643z"/>
</g>
</svg>
